<?xml version="1.0" encoding="UTF-8"?>

<svg xmlns="http://www.w3.org/2000/svg" xml:space="preserve" width="19.5609mm" height="19.5609mm" version="1.1" style="shape-rendering:geometricPrecision; text-rendering:geometricPrecision; image-rendering:optimizeQuality; fill-rule:evenodd; clip-rule:evenodd"
viewBox="0 0 234 234"
 xmlns:xlink="http://www.w3.org/1999/xlink">
 

  
  <path class="fil1" d="M117 18c55,0 99,44 99,99 0,55 -44,99 -99,99 -55,0 -99,-44 -99,-99 0,-55 44,-99 99,-99zm-87 120l37 0 0 -11 -26 0 0 -40 -11 0 0 51zm62 0c12,0 21,-9 21,-20l0 0c0,-11 -9,-20 -21,-20 -12,0 -21,9 -21,20l0 0c0,12 9,20 21,20zm0 -9c-6,0 -10,-5 -10,-11l0 0c0,-6 4,-10 10,-10 6,0 10,5 10,10l0 0c0,6 -3,11 -10,11zm47 20c7,0 13,-1 16,-5 4,-3 5,-8 5,-15l0 -30 -11 0 0 5c-3,-3 -6,-6 -12,-6 -9,0 -18,7 -18,18l0 0c0,12 9,18 18,18 6,0 9,-2 12,-6l0 2c0,7 -3,11 -11,11 -5,0 -9,-2 -13,-4l-4 8c5,3 11,4 18,4zm1 -24c-5,0 -10,-3 -10,-9l0 0c0,-5 5,-9 10,-9 5,0 9,4 9,9l0 0c0,6 -4,9 -9,9zm49 13c12,0 21,-9 21,-20l0 0c0,-11 -9,-20 -21,-20 -12,0 -21,9 -21,20l0 0c0,12 9,20 21,20zm0 -9c-6,0 -10,-5 -10,-11l0 0c0,-6 4,-10 10,-10 6,0 10,5 10,10l0 0c0,6 -3,11 -10,11z"/>
 
</svg>
