<?xml version="1.0" encoding="UTF-8"?>
<!DOCTYPE svg PUBLIC "-//W3C//DTD SVG 1.1//EN" "http://www.w3.org/Graphics/SVG/1.1/DTD/svg11.dtd">
<!-- Creator: CorelDRAW X8 -->
<svg xmlns="http://www.w3.org/2000/svg" xml:space="preserve" width="71.2271mm" height="34.9428mm" version="1.1" style="shape-rendering:geometricPrecision; text-rendering:geometricPrecision; image-rendering:optimizeQuality; fill-rule:evenodd; clip-rule:evenodd"
viewBox="0 0 4400 2159"
 xmlns:xlink="http://www.w3.org/1999/xlink">
 <defs>
  <style type="text/css">
   <![CDATA[
    .fil1 {fill:none}
    .fil2 {fill:black}
    .fil0 {fill:black;fill-rule:nonzero}
   ]]>
  </style>
 </defs>
 <g id="Capa_x0020_1">
  <metadata id="CorelCorpID_0Corel-Layer"/>
  <path class="fil0" d="M147 2035l446 0 0 -115 -318 0 0 -123 276 0 0 -115 -276 0 0 -119 314 0 0 -114 -442 0 0 586zm561 0l126 0 0 -380 163 247 4 0 165 -250 0 383 128 0 0 -586 -139 0 -154 247 -154 -247 -139 0 0 586zm726 0l129 0 0 -176 98 0c132,0 237,-70 237,-206l0 -2c0,-119 -84,-202 -224,-202l-240 0 0 586zm129 -291l0 -179 100 0c64,0 104,31 104,89l0 1c0,51 -37,89 -102,89l-102 0zm430 291l129 0 0 -188 100 0 2 0 125 188 151 0 -143 -210c74,-27 125,-87 125,-181l0 -2c0,-55 -17,-101 -50,-134 -38,-38 -96,-59 -171,-59l-268 0 0 586zm129 -302l0 -168 128 0c63,0 102,29 102,84l0 1c0,50 -36,83 -99,83l-131 0zm477 302l446 0 0 -115 -318 0 0 -123 276 0 0 -115 -276 0 0 -119 314 0 0 -114 -442 0 0 586zm769 8c126,0 215,-65 215,-182l0 -1c0,-102 -67,-145 -186,-176 -101,-26 -126,-39 -126,-77l0 -2c0,-28 26,-51 75,-51 49,0 100,22 152,58l67 -97c-59,-48 -132,-75 -217,-75 -120,0 -205,71 -205,177l0 2c0,116 76,149 194,179 98,25 118,42 118,74l0 2c0,34 -32,55 -85,55 -67,0 -122,-27 -175,-71l-76 91c70,63 160,94 249,94zm264 -8l132 0 53 -132 248 0 54 132 134 0 -251 -590 -119 0 -251 590zm231 -246l78 -190 78 190 -156 0z"/>
  <polygon class="fil1" points="0,0 4400,0 4400,2159 0,2159 "/>
  <path class="fil2" d="M2200 143c284,0 513,230 513,513 0,284 -229,514 -513,514 -283,0 -513,-230 -513,-514 0,-283 230,-513 513,-513zm-449 620l188 0 0 -53 -130 0 0 -209 -58 0 0 262zm321 4c62,0 109,-46 109,-104l0 -1c0,-58 -46,-104 -108,-104 -63,0 -110,47 -110,105l0 1c0,57 47,103 109,103zm1 -49c-32,0 -53,-26 -53,-55l0 -1c0,-29 19,-55 52,-55 31,0 53,26 53,56l0 1c0,29 -20,54 -52,54zm239 106c39,0 68,-9 86,-27 17,-17 26,-43 26,-79l0 -156 -57 0 0 26c-15,-17 -34,-30 -65,-30 -46,0 -89,34 -89,94l0 1c0,59 42,93 89,93 31,0 49,-12 66,-32l0 10c0,36 -19,54 -58,54 -26,0 -47,-6 -67,-18l-20 43c26,13 56,21 89,21zm7 -125c-28,0 -49,-19 -49,-46l0 -1c0,-27 21,-46 49,-46 27,0 49,19 49,46l0 1c0,27 -22,46 -49,46zm254 68c63,0 110,-46 110,-104l0 -1c0,-58 -47,-104 -109,-104 -62,0 -109,47 -109,105l0 1c0,57 46,103 108,103zm1 -49c-31,0 -53,-26 -53,-55l0 -1c0,-29 20,-55 52,-55 32,0 53,26 53,56l0 1c0,29 -19,54 -52,54z"/>
 </g>
</svg>
