<?xml version="1.0" encoding="UTF-8"?>
<!DOCTYPE svg PUBLIC "-//W3C//DTD SVG 1.1//EN" "http://www.w3.org/Graphics/SVG/1.1/DTD/svg11.dtd">
<!-- Creator: CorelDRAW X8 -->
<svg xmlns="http://www.w3.org/2000/svg" xml:space="preserve" width="85.9662mm" height="16.0416mm" version="1.1" style="shape-rendering:geometricPrecision; text-rendering:geometricPrecision; image-rendering:optimizeQuality; fill-rule:evenodd; clip-rule:evenodd"
viewBox="0 0 7326 1367"
 xmlns:xlink="http://www.w3.org/1999/xlink">
 <defs>
  <style type="text/css">
   <![CDATA[
    .fil0 {fill:black}
    .fil1 {fill:black;fill-rule:nonzero}
   ]]>
  </style>
 </defs>
 <g id="Capa_x0020_1">
  <metadata id="CorelCorpID_0Corel-Layer"/>
  <path class="fil0" d="M684 0c377,0 683,306 683,684 0,377 -306,683 -683,683 -378,0 -684,-306 -684,-683 0,-378 306,-684 684,-684zm-599 825l251 0 0 -69 -174 0 0 -280 -77 0 0 349zm427 6c84,0 146,-62 146,-139l0 -1c0,-77 -62,-138 -145,-138 -83,0 -145,62 -145,139l0 1c0,77 62,138 144,138zm1 -65c-41,0 -70,-34 -70,-74l0 -1c0,-39 26,-73 69,-73 42,0 71,35 71,74l0 1c0,40 -26,73 -70,73zm319 140c52,0 91,-11 116,-36 22,-22 34,-57 34,-105l0 -207 -76 0 0 35c-21,-23 -45,-40 -87,-40 -61,0 -118,45 -118,125l0 1c0,79 56,124 118,124 41,0 65,-16 88,-43l0 13c0,48 -25,73 -77,73 -35,0 -63,-9 -90,-25l-26 57c34,18 75,28 118,28zm9 -165c-37,0 -65,-25 -65,-62l0 -1c0,-37 28,-62 65,-62 37,0 66,25 66,62l0 1c0,36 -29,62 -66,62zm340 90c83,0 145,-62 145,-139l0 -1c0,-77 -62,-138 -144,-138 -84,0 -146,62 -146,139l0 1c0,77 62,138 145,138zm1 -65c-42,0 -71,-34 -71,-74l0 -1c0,-39 26,-73 70,-73 42,0 70,35 70,74l0 1c0,40 -26,73 -69,73z"/>
  <path class="fil1" d="M1662 1139l615 0 0 -158 -438 0 0 -169 381 0 0 -159 -381 0 0 -164 433 0 0 -158 -610 0 0 808zm774 0l174 0 0 -524 225 342 5 0 227 -345 0 527 177 0 0 -808 -192 0 -212 342 -213 -342 -191 0 0 808zm1002 0l177 0 0 -242 136 0c181,0 326,-97 326,-284l0 -2c0,-165 -116,-280 -309,-280l-330 0 0 808zm177 -400l0 -247 138 0c89,0 144,42 144,122l0 2c0,70 -52,123 -141,123l-141 0zm594 400l178 0 0 -258 137 0 2 0 174 258 207 0 -197 -288c103,-38 173,-120 173,-251l0 -2c0,-76 -24,-140 -69,-185 -53,-53 -133,-82 -236,-82l-369 0 0 808zm178 -415l0 -232 176 0c87,0 140,39 140,115l0 3c0,68 -50,114 -136,114l-180 0zm657 415l615 0 0 -158 -439 0 0 -169 381 0 0 -159 -381 0 0 -164 433 0 0 -158 -609 0 0 808zm1061 12c174,0 296,-90 296,-251l0 -2c0,-141 -92,-200 -256,-242 -140,-36 -174,-53 -174,-107l0 -2c0,-39 36,-70 104,-70 68,0 138,30 210,79l92 -134c-82,-65 -182,-102 -300,-102 -165,0 -283,97 -283,243l0 3c0,160 105,205 268,247 135,34 163,57 163,102l0 3c0,47 -44,76 -117,76 -92,0 -168,-38 -241,-98l-105 126c97,86 220,129 343,129zm364 -12l182 0 74 -181 341 0 74 181 186 0 -346 -813 -164 0 -347 813zm319 -338l108 -262 107 262 -215 0z"/>
 </g>
</svg>
